# xmcd
#
# Track frame offsets: 
#        150
#        17502
#        33965
#        55425
#        61952
#        81475
#        94030
#        109340
#        126355
#        143677
#        159320
#        175475
#
# Disc length: 2400 seconds
#
# Revision: 12
# Processed by: cddbd v1.5.2PL0 Copyright (c) Steve Scherf et al.
# Submitted via: ExactAudioCopy v1.0b3
#
DISCID=a0095e0c
DTITLE=Wolfgang Petry - Einmal mit dir
DYEAR=1996
DGENRE=Pop
TTITLE0=Auf den Mond schiessen
TTITLE1=Nur ein kleines Stueck Papier
TTITLE2=Einmal mit dir
TTITLE3=Ich schlief
TTITLE4=Leben lohnt sich
TTITLE5=Du und ich
TTITLE6=Frueher
TTITLE7=100 Stunden
TTITLE8=Herzlichen Glueckwunsch
TTITLE9=Schade
TTITLE10=Wenn ich ehrlich bin
TTITLE11=Ich schlief (Reprise)
EXTD=YEAR: 1996
EXTT0=
EXTT1=
EXTT2=
EXTT3=
EXTT4=
EXTT5=
EXTT6=
EXTT7=
EXTT8=
EXTT9=
EXTT10=
EXTT11=
PLAYORDER=
